# xmcd CD database file
#
# Track frame offsets:
#	150
#	29073
#	56812
#	77444
#	105371
#	130439
#	159569
#	184400
#	194922
#
# Disc length: 2929 seconds
#
# Revision: 2
# Processed by: cddbd v1.5.2PL0 Copyright (c) Steve Scherf et al.
# Submitted via: CDex 1.51
#
DISCID=810b6f09
DTITLE=Sonaer - Coexistence
DYEAR=2010
DGENRE=Jazz
TTITLE0=Blaue Stunde
TTITLE1=Chume für
TTITLE2=Sommerfrische
TTITLE3=Coexistence
TTITLE4=Fokuss
TTITLE5=Shadows of the evening sun
TTITLE6=November Haze
TTITLE7=Schöne Tritöne
TTITLE8=Song for  Heinz 
EXTD=YEAR: 2010
EXTT0=
EXTT1=
EXTT2=
EXTT3=
EXTT4=
EXTT5=
EXTT6=
EXTT7=
EXTT8=
PLAYORDER=
